<svg width="24" height="22" viewBox="0 0 24 22" fill="none" xmlns="http://www.w3.org/2000/svg">
<path fill-rule="evenodd" clip-rule="evenodd" d="M17.4546 -1.07291e-07C18.8102 -4.8036e-08 19.9092 1.09894 19.9092 2.45454L19.9092 6.81817C19.9092 8.17378 18.8102 9.27272 17.4546 9.27272C16.099 9.27272 15.0001 8.17378 15.0001 6.81817L15.0001 2.45454C15.0001 1.09894 16.099 -1.66547e-07 17.4546 -1.07291e-07Z" fill="#FF5543"/>
<path fill-rule="evenodd" clip-rule="evenodd" d="M1.90918 5.72725C1.90918 4.37164 3.00812 3.27271 4.36372 3.27271H8.72735C10.083 3.27271 11.1819 4.37164 11.1819 5.72725C11.1819 7.08285 10.083 8.18179 8.72735 8.18179H4.36372C3.00812 8.18179 1.90918 7.08285 1.90918 5.72725Z" fill="#A112FF"/>
<path fill-rule="evenodd" clip-rule="evenodd" d="M23.3209 12.8728C24.1945 13.7027 24.2299 15.0837 23.4 15.9573L22.6277 16.7702C16.5846 23.1314 6.39643 22.9729 0.55405 16.4269C-0.248309 15.5279 -0.169965 14.1486 0.729037 13.3463C1.62804 12.5439 3.00727 12.6223 3.80962 13.5213C7.95299 18.1637 15.1784 18.2761 19.4641 13.7648L20.2364 12.9519C21.0663 12.0783 22.4473 12.0428 23.3209 12.8728Z" fill="#00CBEC"/>
</svg>
